<?xml version="1.0" encoding="UTF-8"?>
<svg version="1.1" xmlns="http://www.w3.org/2000/svg" width="62" height="52">
<path d="M0 0 C1.1810733 0.00007553 2.36214661 0.00015106 3.57901001 0.00022888 C4.85924042 0.00539017 6.13947083 0.01055145 7.45849609 0.01586914 C8.76523285 0.01728409 10.0719696 0.01869904 11.41830444 0.02015686 C14.89369617 0.02397645 18.36904616 0.03380197 21.84442139 0.04486084 C25.39025305 0.05508696 28.93609144 0.05965706 32.48193359 0.06469727 C39.44028408 0.07542473 46.39860683 0.09249447 53.35693359 0.11352539 C53.38379912 2.09261937 53.40326735 4.0718151 53.41943359 6.05102539 C53.43103516 7.15317383 53.44263672 8.25532227 53.45458984 9.39086914 C53.35693359 12.11352539 53.35693359 12.11352539 52.35693359 13.11352539 C49.38693359 13.11352539 46.41693359 13.11352539 43.35693359 13.11352539 C43.35693359 21.36352539 43.35693359 29.61352539 43.35693359 38.11352539 C45.99693359 38.44352539 48.63693359 38.77352539 51.35693359 39.11352539 C52.53264811 42.78763324 52.43060106 46.28281722 52.35693359 50.11352539 C46.92531313 52.54346086 42.05097921 52.53703679 36.35693359 51.11352539 C32.80953351 49.29620977 30.75356271 47.07386554 29.21289062 43.34350586 C28.31363733 39.95014561 28.12824625 37.12569617 28.16162109 33.62133789 C28.16806641 32.42250977 28.17451172 31.22368164 28.18115234 29.98852539 C28.19791016 28.75102539 28.21466797 27.51352539 28.23193359 26.23852539 C28.24095703 24.97782227 28.24998047 23.71711914 28.25927734 22.41821289 C28.28277551 19.31645499 28.31563025 16.21508887 28.35693359 13.11352539 C25.05693359 13.11352539 21.75693359 13.11352539 18.35693359 13.11352539 C18.30794922 14.59981445 18.25896484 16.08610352 18.20849609 17.61743164 C17.79882579 28.91695236 17.08521018 39.93733681 15.35693359 51.11352539 C10.40693359 51.11352539 5.45693359 51.11352539 0.35693359 51.11352539 C1.14169597 38.42653363 2.22340261 25.773763 3.35693359 13.11352539 C2.64666016 13.12512695 1.93638672 13.13672852 1.20458984 13.14868164 C0.28548828 13.15770508 -0.63361328 13.16672852 -1.58056641 13.17602539 C-2.49708984 13.18762695 -3.41361328 13.19922852 -4.35791016 13.21118164 C-6.64306641 13.11352539 -6.64306641 13.11352539 -7.64306641 12.11352539 C-7.71533142 10.26065038 -7.7268786 8.40518661 -7.70556641 6.55102539 C-7.69654297 5.53911133 -7.68751953 4.52719727 -7.67822266 3.48461914 C-7.66662109 2.7021582 -7.65501953 1.91969727 -7.64306641 1.11352539 C-4.98399057 -0.21601253 -2.97741272 -0.00633492 0 0 Z " fill="#090909" transform="translate(8.64306640625,-0.113525390625)"/>
</svg>
